<svg width="32" height="32" viewBox="0 0 32 32" fill="none" xmlns="http://www.w3.org/2000/svg">
<path d="M12.0822 6.43511L4.31881 13.2285C3.65307 13.8111 4.09944 14.8457 5.01651 14.8457C5.57679 14.8457 6.03099 15.2652 6.03099 15.7828V20.1075C6.03099 23.828 6.03099 25.6883 7.28235 26.8441C8.53372 28 10.5478 28 14.5759 28H17.4241C21.4523 28 23.4663 28 24.7176 26.8441C25.9691 25.6883 25.9691 23.828 25.9691 20.1075V15.7828C25.9691 15.2652 26.4232 14.8457 26.9835 14.8457C27.9005 14.8457 28.3469 13.8111 27.6812 13.2285L19.9177 6.43511C18.0625 4.81171 17.1349 4 16 4C14.8651 4 13.9375 4.81171 12.0822 6.43511Z" stroke="#141B34" stroke-width="1.5" stroke-linecap="round" stroke-linejoin="round"/>
<path d="M16 21.3333H16.012" stroke="#141B34" stroke-width="2" stroke-linecap="round" stroke-linejoin="round"/>
</svg>
