<svg width="32" height="32" viewBox="0 0 32 32" fill="none" xmlns="http://www.w3.org/2000/svg">
<path d="M6.00008 12.6667H5.33341C4.07633 12.6667 3.4478 12.6667 3.05727 13.0572C2.66675 13.4477 2.66675 14.0763 2.66675 15.3333V26.6667C2.66675 27.9237 2.66675 28.5523 3.05727 28.9428C3.4478 29.3333 4.07633 29.3333 5.33341 29.3333H6.00008C7.25716 29.3333 7.88569 29.3333 8.27623 28.9428C8.66675 28.5523 8.66675 27.9237 8.66675 26.6667V15.3333C8.66675 14.0763 8.66675 13.4477 8.27623 13.0572C7.88569 12.6667 7.25716 12.6667 6.00008 12.6667Z" stroke="#2F2F2F" stroke-width="1.5"/>
<path d="M8.66675 5.66666C8.66675 7.32352 7.3236 8.66666 5.66675 8.66666C4.00989 8.66666 2.66675 7.32352 2.66675 5.66666C2.66675 4.00981 4.00989 2.66666 5.66675 2.66666C7.3236 2.66666 8.66675 4.00981 8.66675 5.66666Z" stroke="#2F2F2F" stroke-width="1.5"/>
<path d="M16.4347 12.6667H15.3334C14.0763 12.6667 13.4478 12.6667 13.0573 13.0572C12.6667 13.4477 12.6667 14.0763 12.6667 15.3333V26.6667C12.6667 27.9237 12.6667 28.5523 13.0573 28.9428C13.4478 29.3333 14.0763 29.3333 15.3334 29.3333H16.0001C17.2571 29.3333 17.8857 29.3333 18.2762 28.9428C18.6667 28.5523 18.6667 27.9237 18.6667 26.6667L18.6669 22.0001C18.6669 19.7911 19.3709 18.0001 21.4506 18.0001C22.4903 18.0001 23.3334 18.8956 23.3334 20.0001V26.0001C23.3334 27.2572 23.3334 27.8857 23.7239 28.2763C24.1143 28.6668 24.743 28.6668 26.0001 28.6668H26.665C27.9218 28.6668 28.5502 28.6668 28.9407 28.2764C29.3313 27.886 29.3314 27.2576 29.3317 26.0008L29.3335 18.6669C29.3335 15.3533 26.1819 12.667 23.0625 12.667C21.2866 12.667 19.7023 13.5375 18.6669 14.8987C18.6667 14.0585 18.6667 13.6385 18.4843 13.3267C18.3687 13.1291 18.2042 12.9647 18.0067 12.8492C17.6949 12.6667 17.2749 12.6667 16.4347 12.6667Z" stroke="#2F2F2F" stroke-width="1.5" stroke-linejoin="round"/>
</svg>
